<?xml version="1.0" encoding="UTF-8" standalone="no"?>
<svg xmlns="http://www.w3.org/2000/svg" version="1.1" width="187pt" height="100pt">
<rect x="0pt" y="0pt" width="187pt" height="100pt" style="fill:#ffffff;fill-opacity:1" />
<!-- Printing barcode for "coldboot.org", scaled  1.00, encoded using "code 128" -->
<!-- The space/bar succession is represented by the following widths (space first): 02112141411221341112211141412211214211341111341111241121222311341111212411221141122142331112 -->
<line x1="11.000000pt" y1="90.000000pt" x2="11.000000pt" y2="10.000000pt" style="stroke:rgb(0,0,0);stroke-width:1.850000pt" />
<line x1="13.500000pt" y1="90.000000pt" x2="13.500000pt" y2="10.000000pt" style="stroke:rgb(0,0,0);stroke-width:0.850000pt" />
<line x1="16.500000pt" y1="90.000000pt" x2="16.500000pt" y2="10.000000pt" style="stroke:rgb(0,0,0);stroke-width:0.850000pt" />
<line x1="21.500000pt" y1="90.000000pt" x2="21.500000pt" y2="10.000000pt" style="stroke:rgb(0,0,0);stroke-width:0.850000pt" />
<line x1="26.500000pt" y1="90.000000pt" x2="26.500000pt" y2="10.000000pt" style="stroke:rgb(0,0,0);stroke-width:0.850000pt" />
<line x1="29.000000pt" y1="90.000000pt" x2="29.000000pt" y2="10.000000pt" style="stroke:rgb(0,0,0);stroke-width:1.850000pt" />
<line x1="32.500000pt" y1="90.000000pt" x2="32.500000pt" y2="10.000000pt" style="stroke:rgb(0,0,0);stroke-width:0.850000pt" />
<line x1="38.000000pt" y1="90.000000pt" x2="38.000000pt" y2="10.000000pt" style="stroke:rgb(0,0,0);stroke-width:3.850000pt" />
<line x1="41.500000pt" y1="90.000000pt" x2="41.500000pt" y2="10.000000pt" style="stroke:rgb(0,0,0);stroke-width:0.850000pt" />
<line x1="44.000000pt" y1="90.000000pt" x2="44.000000pt" y2="10.000000pt" style="stroke:rgb(0,0,0);stroke-width:1.850000pt" />
<line x1="47.500000pt" y1="90.000000pt" x2="47.500000pt" y2="10.000000pt" style="stroke:rgb(0,0,0);stroke-width:0.850000pt" />
<line x1="49.500000pt" y1="90.000000pt" x2="49.500000pt" y2="10.000000pt" style="stroke:rgb(0,0,0);stroke-width:0.850000pt" />
<line x1="54.500000pt" y1="90.000000pt" x2="54.500000pt" y2="10.000000pt" style="stroke:rgb(0,0,0);stroke-width:0.850000pt" />
<line x1="59.500000pt" y1="90.000000pt" x2="59.500000pt" y2="10.000000pt" style="stroke:rgb(0,0,0);stroke-width:0.850000pt" />
<line x1="63.000000pt" y1="90.000000pt" x2="63.000000pt" y2="10.000000pt" style="stroke:rgb(0,0,0);stroke-width:1.850000pt" />
<line x1="65.500000pt" y1="90.000000pt" x2="65.500000pt" y2="10.000000pt" style="stroke:rgb(0,0,0);stroke-width:0.850000pt" />
<line x1="68.500000pt" y1="90.000000pt" x2="68.500000pt" y2="10.000000pt" style="stroke:rgb(0,0,0);stroke-width:0.850000pt" />
<line x1="74.000000pt" y1="90.000000pt" x2="74.000000pt" y2="10.000000pt" style="stroke:rgb(0,0,0);stroke-width:1.850000pt" />
<line x1="76.500000pt" y1="90.000000pt" x2="76.500000pt" y2="10.000000pt" style="stroke:rgb(0,0,0);stroke-width:0.850000pt" />
<line x1="82.000000pt" y1="90.000000pt" x2="82.000000pt" y2="10.000000pt" style="stroke:rgb(0,0,0);stroke-width:3.850000pt" />
<line x1="85.500000pt" y1="90.000000pt" x2="85.500000pt" y2="10.000000pt" style="stroke:rgb(0,0,0);stroke-width:0.850000pt" />
<line x1="87.500000pt" y1="90.000000pt" x2="87.500000pt" y2="10.000000pt" style="stroke:rgb(0,0,0);stroke-width:0.850000pt" />
<line x1="93.000000pt" y1="90.000000pt" x2="93.000000pt" y2="10.000000pt" style="stroke:rgb(0,0,0);stroke-width:3.850000pt" />
<line x1="96.500000pt" y1="90.000000pt" x2="96.500000pt" y2="10.000000pt" style="stroke:rgb(0,0,0);stroke-width:0.850000pt" />
<line x1="98.500000pt" y1="90.000000pt" x2="98.500000pt" y2="10.000000pt" style="stroke:rgb(0,0,0);stroke-width:0.850000pt" />
<line x1="103.000000pt" y1="90.000000pt" x2="103.000000pt" y2="10.000000pt" style="stroke:rgb(0,0,0);stroke-width:3.850000pt" />
<line x1="106.500000pt" y1="90.000000pt" x2="106.500000pt" y2="10.000000pt" style="stroke:rgb(0,0,0);stroke-width:0.850000pt" />
<line x1="109.500000pt" y1="90.000000pt" x2="109.500000pt" y2="10.000000pt" style="stroke:rgb(0,0,0);stroke-width:0.850000pt" />
<line x1="113.000000pt" y1="90.000000pt" x2="113.000000pt" y2="10.000000pt" style="stroke:rgb(0,0,0);stroke-width:1.850000pt" />
<line x1="117.500000pt" y1="90.000000pt" x2="117.500000pt" y2="10.000000pt" style="stroke:rgb(0,0,0);stroke-width:2.850000pt" />
<line x1="120.500000pt" y1="90.000000pt" x2="120.500000pt" y2="10.000000pt" style="stroke:rgb(0,0,0);stroke-width:0.850000pt" />
<line x1="126.000000pt" y1="90.000000pt" x2="126.000000pt" y2="10.000000pt" style="stroke:rgb(0,0,0);stroke-width:3.850000pt" />
<line x1="129.500000pt" y1="90.000000pt" x2="129.500000pt" y2="10.000000pt" style="stroke:rgb(0,0,0);stroke-width:0.850000pt" />
<line x1="131.500000pt" y1="90.000000pt" x2="131.500000pt" y2="10.000000pt" style="stroke:rgb(0,0,0);stroke-width:0.850000pt" />
<line x1="134.500000pt" y1="90.000000pt" x2="134.500000pt" y2="10.000000pt" style="stroke:rgb(0,0,0);stroke-width:0.850000pt" />
<line x1="139.000000pt" y1="90.000000pt" x2="139.000000pt" y2="10.000000pt" style="stroke:rgb(0,0,0);stroke-width:3.850000pt" />
<line x1="142.500000pt" y1="90.000000pt" x2="142.500000pt" y2="10.000000pt" style="stroke:rgb(0,0,0);stroke-width:0.850000pt" />
<line x1="146.000000pt" y1="90.000000pt" x2="146.000000pt" y2="10.000000pt" style="stroke:rgb(0,0,0);stroke-width:1.850000pt" />
<line x1="148.500000pt" y1="90.000000pt" x2="148.500000pt" y2="10.000000pt" style="stroke:rgb(0,0,0);stroke-width:0.850000pt" />
<line x1="153.500000pt" y1="90.000000pt" x2="153.500000pt" y2="10.000000pt" style="stroke:rgb(0,0,0);stroke-width:0.850000pt" />
<line x1="156.000000pt" y1="90.000000pt" x2="156.000000pt" y2="10.000000pt" style="stroke:rgb(0,0,0);stroke-width:1.850000pt" />
<line x1="159.500000pt" y1="90.000000pt" x2="159.500000pt" y2="10.000000pt" style="stroke:rgb(0,0,0);stroke-width:0.850000pt" />
<line x1="165.000000pt" y1="90.000000pt" x2="165.000000pt" y2="10.000000pt" style="stroke:rgb(0,0,0);stroke-width:1.850000pt" />
<line x1="170.500000pt" y1="90.000000pt" x2="170.500000pt" y2="10.000000pt" style="stroke:rgb(0,0,0);stroke-width:2.850000pt" />
<line x1="173.500000pt" y1="90.000000pt" x2="173.500000pt" y2="10.000000pt" style="stroke:rgb(0,0,0);stroke-width:0.850000pt" />
<line x1="176.000000pt" y1="90.000000pt" x2="176.000000pt" y2="10.000000pt" style="stroke:rgb(0,0,0);stroke-width:1.850000pt" />
<!-- End barcode for "coldboot.org" -->

</svg>
